
		************
		THE 4TH KIND
		************

***************************************************************************************************************
***************************************************************************************************************
Release Date:	6 November 2009 (USA) more


Genre:		Horror | Mystery | Sci-Fi | Thriller more


Tagline:	There are four kinds of alien encounters. The fourth kind is abduction. more




Plot:		Fact-based thriller involving an ongoing unsolved mystery in Alaska, where one town has 					seen an extraordinary number of unexplained disappearances during the past 40 years and						there are accusations of a federal coverup.



User Rating:	7.0/10   1,036 votes 


imdb:  	http://www.imdb.com/title/tt1220198/

***************************************************************************************************************
***************************************************************************************************************

Format                           : AVI
Format/Info                      : Audio Video Interleave
File size                        : 749 MB
Duration                         : 1hr 38mins
Overall bit rate                 : 1 341 Kbps
Writing application              : VirtualDubMod 1.5.10.2 (build 2542/release)
Writing library                  : VirtualDubMod build 2542/release


Video
Format                           : xvid
Codec ID                         : xvid
Duration                         : 1hr 38mins
Bit rate                         : 1 200 Kbps
Width                            : 704 pixels
Height                           : 366 pixels
Display aspect ratio             : 1.923
Frame rate                       : 23.976 fps
Resolution                       : 24 bits
Bits/(Pixel*Frame)               : 0.194
Stream size                      : 725 MiB (90%)

Audio
ID                               : 1
Format                           : MPEG Audio
Format version                   : Version 1
Format profile                   : Layer 3
Codec ID                         : 55
Codec ID/Hint                    : MP3
Duration                         : 1hr 38mins
Bit rate mode                    : Constant
Bit rate                         : 128 Kbps
Channel(s)                       : 2 channels
Sampling rate                    : 48.0 KHz
Resolution                       : 16 bits
Stream size                      : 77.3 MiB (10%)
Alignment                        : Aligned on interleaves
Interleave, duration             : 24 ms (0.58 video frame)
Interleave, preload duration     : 24 ms


